<svg viewBox="0 0 120 120" xmlns="http://www.w3.org/2000/svg">
  <!-- Tape holding it -->
  <path d="M30 15 L50 10 L55 30 L35 35 Z" fill="#DCEC9D" stroke="#1c1c1c" stroke-width="4" opacity="0.9"/>
  <path d="M70 105 L90 100 L95 120 L75 125 Z" fill="#EFBBD8" stroke="#1c1c1c" stroke-width="4" opacity="0.9"/>
  <!-- Wonky label background -->
  <path d="M15 25 C30 20, 90 20, 105 25 C110 50, 110 80, 105 105 C90 110, 30 110, 15 105 C10 80, 10 50, 15 25 Z" fill="#fff" stroke="#1c1c1c" stroke-width="6" stroke-linejoin="round"/>
  <!-- Barcode lines -->
  <rect x="25" y="40" width="8" height="40" fill="#1c1c1c" rx="2" transform="rotate(-2 25 40)"/>
  <rect x="40" y="40" width="4" height="40" fill="#1c1c1c" rx="1" transform="rotate(1 40 40)"/>
  <rect x="50" y="40" width="12" height="40" fill="#1c1c1c" rx="2" transform="rotate(-1 50 40)"/>
  <rect x="70" y="40" width="6" height="40" fill="#1c1c1c" rx="1" transform="rotate(2 70 40)"/>
  <rect x="85" y="40" width="10" height="40" fill="#1c1c1c" rx="2" transform="rotate(-3 85 40)"/>
</svg>