<svg viewBox="0 0 120 120" xmlns="http://www.w3.org/2000/svg">
  <!-- Recycle arrows roughly drawn -->
  <path d="M60 20 C85 20, 100 40, 95 65" fill="none" stroke="#DCEC9D" stroke-width="14" stroke-linecap="round"/>
  <path d="M80 60 L95 80 L110 55 Z" fill="#DCEC9D" stroke="#1c1c1c" stroke-width="5" stroke-linejoin="round"/>
  <path d="M90 85 C70 105, 40 105, 25 85" fill="none" stroke="#DCEC9D" stroke-width="14" stroke-linecap="round"/>
  <path d="M35 105 L15 90 L35 70 Z" fill="#DCEC9D" stroke="#1c1c1c" stroke-width="5" stroke-linejoin="round"/>
  <path d="M20 70 C10 45, 25 25, 50 20" fill="none" stroke="#DCEC9D" stroke-width="14" stroke-linecap="round"/>
  <path d="M40 10 L65 25 L45 40 Z" fill="#DCEC9D" stroke="#1c1c1c" stroke-width="5" stroke-linejoin="round"/>
  <!-- Strokes over the thick paths -->
  <path d="M60 20 C85 20, 100 40, 95 65" fill="none" stroke="#1c1c1c" stroke-width="6" stroke-linecap="round"/>
  <path d="M90 85 C70 105, 40 105, 25 85" fill="none" stroke="#1c1c1c" stroke-width="6" stroke-linecap="round"/>
  <path d="M20 70 C10 45, 25 25, 50 20" fill="none" stroke="#1c1c1c" stroke-width="6" stroke-linecap="round"/>
</svg>